<svg width="48" height="45" viewBox="0 0 48 45" fill="none" xmlns="http://www.w3.org/2000/svg">
<g clip-path="url(#clip0)">
<path d="M0.0470054 13.4413C0.159454 11.0793 0.571888 9.45545 1.1627 8.04837C1.7722 6.55478 2.70988 5.21758 3.93839 4.10596C5.1387 2.97703 6.5921 2.09981 8.18617 1.54417C9.7143 0.997008 11.4585 0.615047 14.009 0.510906C16.5784 0.397946 17.3941 0.371826 23.911 0.371826C30.4279 0.371826 31.2436 0.397946 33.8036 0.502087C36.354 0.606227 38.1074 0.988528 39.6264 1.53535C41.2395 2.09981 42.6834 2.96821 43.8837 4.10596C45.1027 5.21758 46.0495 6.5636 46.6498 8.03989C47.2407 9.45545 47.6531 11.0705 47.7655 13.4325C47.8875 15.8121 47.9157 16.5675 47.9157 22.6029C47.9157 28.6383 47.8875 29.3938 47.7751 31.7646C47.6626 34.1266 47.2498 35.7504 46.659 37.1575C46.0495 38.6511 45.1027 39.9883 43.8837 41.0999C42.6834 42.2288 41.23 43.106 39.6359 43.6617C38.1074 44.2089 36.3635 44.5908 33.8127 44.695C31.2532 44.7994 30.4371 44.8252 23.9202 44.8252C17.4033 44.8252 16.5876 44.7994 14.0276 44.695C11.4772 44.5908 9.72382 44.2089 8.20485 43.6617C4.979 42.5066 2.42857 40.1447 1.18138 37.1575C0.590935 35.7419 0.178135 34.1266 0.0656858 31.7646C-0.0467629 29.3938 -0.0749666 28.6383 -0.0749666 22.6029C-0.0749666 16.5675 -0.0654433 15.8121 0.0470054 13.4413ZM4.3695 31.5909C4.47279 33.7619 4.86655 34.9342 5.19474 35.7158C6.00129 37.6524 7.66092 39.1894 9.75202 39.9364C10.5959 40.2403 11.871 40.605 14.206 40.7003C16.7378 40.8048 17.4971 40.8306 23.9015 40.8306C30.306 40.8306 31.0748 40.8048 33.5974 40.7003C35.9416 40.605 37.2074 40.2403 38.0514 39.9364C39.092 39.5802 40.0392 39.0157 40.808 38.2776C41.605 37.5568 42.2145 36.6884 42.5991 35.7246C42.9273 34.9431 43.3211 33.7619 43.424 31.5997C43.5368 29.255 43.5646 28.5515 43.5646 22.6202C43.5646 16.689 43.5368 15.977 43.424 13.6411C43.3211 11.4701 42.9273 10.2977 42.5991 9.51617C42.2145 8.55211 41.605 7.67523 40.7985 6.96287C40.0205 6.22472 39.0828 5.66026 38.0418 5.30442C37.1979 5.00048 35.9225 4.63582 33.5878 4.54016C31.0561 4.43602 30.2964 4.4099 23.8924 4.4099C17.4784 4.4099 16.7191 4.43602 14.1965 4.54016C11.8523 4.63582 10.5864 5.00048 9.7425 5.30442C8.70189 5.66026 7.75468 6.22472 6.98586 6.96287C6.18883 7.68371 5.57933 8.55211 5.19474 9.51617C4.86655 10.2977 4.47279 11.4786 4.3695 13.6411C4.25705 15.9858 4.22885 16.689 4.22885 22.6202C4.22885 28.5515 4.25705 29.2462 4.3695 31.5909Z" fill="#848484"/>
<path d="M35.7415 22.6029C35.7415 16.6098 30.479 11.6834 23.911 11.6834C17.3426 11.6834 12.0805 16.6098 12.0805 22.6029C12.0805 28.5961 17.3426 33.5224 23.911 33.5224C30.479 33.5224 35.7415 28.596 35.7415 22.6029ZM32.4095 22.6029C32.4095 27.0048 28.5665 30.5104 23.911 30.5104C19.255 30.5104 15.4125 27.0048 15.4125 22.6029C15.4125 18.201 19.255 14.6954 23.911 14.6954C28.5665 14.6954 32.4095 18.201 32.4095 22.6029Z" fill="#848484" stroke="#848484"/>
<path d="M8.21395 10.7319C8.21395 12.2041 9.5029 13.3978 11.0929 13.3978C12.6826 13.3978 13.9716 12.2041 13.9716 10.7319C13.9716 9.25936 12.6826 8.06598 11.0929 8.06598C9.5029 8.06598 8.21395 9.25936 8.21395 10.7319V10.7319Z" fill="#848484"/>
</g>
<rect width="48" height="44.4535" transform="matrix(-1 0 0 1 48 0.371826)" stroke="#848484"/>
<defs>
<clipPath id="clip0">
</clipPath>
</defs>
</svg>
