<svg width="36" height="22" viewBox="0 0 56 42" fill="none" xmlns="http://www.w3.org/2000/svg">
<path d="M55.1353 1.50604C54.4513 0.774555 53.4268 0.371826 52.2501 0.371826C51.6105 0.371826 50.9329 0.489507 50.2365 0.722252L2.83358 16.5448C0.317959 17.3843 -0.0208471 18.644 0.000942383 19.3202C0.0227319 19.9964 0.442715 21.2375 3.00875 21.9514C3.02414 21.9555 3.03952 21.9596 3.0549 21.9634L12.8875 24.4238L18.205 37.7198C18.9301 39.5325 20.5575 40.6585 22.4527 40.6585C23.6477 40.6585 24.8231 40.2206 25.8519 39.3928L31.9337 34.4961L40.7551 40.707C40.7559 40.7078 40.7572 40.7082 40.7581 40.7089L40.8418 40.7679C40.8495 40.7732 40.8576 40.7788 40.8653 40.784C41.8458 41.449 42.9161 41.8002 43.9616 41.8005H43.962C46.0047 41.8005 47.6312 40.4784 48.105 38.4326L55.8719 4.89785C56.1838 3.55181 55.9223 2.34736 55.1353 1.50604V1.50604ZM16.1769 23.9565L35.1471 15.4824L23.335 26.4573C23.1414 26.637 23.0043 26.857 22.9368 27.0965L20.6591 35.1637L16.1769 23.9565ZM23.6289 37.282C23.5503 37.3451 23.4713 37.4015 23.3922 37.4535L25.5054 29.9697L29.3493 32.6764L23.6289 37.282ZM52.656 4.32813L44.8891 37.8633C44.8143 38.1842 44.5755 38.931 43.9616 38.931C43.6582 38.931 43.2771 38.7864 42.887 38.5238L32.8912 31.4861C32.8899 31.485 32.8882 31.4839 32.8865 31.4832L26.9388 27.2952L44.0205 11.4241C44.5674 10.916 44.617 10.1378 44.138 9.57966C43.6586 9.02152 42.7901 8.84593 42.0795 9.16348L13.9847 21.7138L4.01834 19.2205L51.4068 3.40275C51.8071 3.269 52.0865 3.24099 52.2501 3.24099C52.3505 3.24099 52.5291 3.25145 52.5954 3.3228C52.6825 3.41582 52.7936 3.733 52.656 4.32813V4.32813Z" fill="#fff"/>
</svg>
