<svg width="63" height="56" viewBox="0 0 63 56" fill="none" xmlns="http://www.w3.org/2000/svg">
<g clip-path="url(#clip0)">
<path d="M60.2009 36.6007C58.8305 35.1454 57.2823 33.8461 55.785 32.5895C55.2588 32.1478 54.7145 31.691 54.1903 31.2375C54.1902 31.2374 54.19 31.2373 54.1899 31.2372C53.4849 30.6278 53.1397 30.1953 53.1037 29.8758C53.0682 29.5618 53.3104 29.0959 53.8674 28.4072C54.7003 27.3714 55.5881 26.3338 56.447 25.3305C57.2104 24.4386 57.9996 23.5163 58.7561 22.5887L58.9259 22.3805C60.4018 20.5703 61.9279 18.6985 62.7456 16.4175C62.9792 15.7635 63.2217 14.7957 62.6367 13.9461C62.0515 13.0963 60.9666 12.8444 60.202 12.7291C59.8286 12.6724 59.4742 12.6677 59.1444 12.6677L49.5706 12.6602C47.9154 12.6357 46.7671 13.331 46.1413 14.727C45.6405 15.842 45.049 17.1342 44.3637 18.3599C43.0527 20.7263 41.3867 23.4518 38.972 25.7227L38.8647 25.8239C38.7004 25.9794 38.4317 26.2336 38.2938 26.292C38.0322 26.1463 37.7304 25.3132 37.7442 24.8767C37.7445 24.8659 37.7446 24.8552 37.7446 24.8445L37.7362 15.042C37.7362 14.9922 37.7322 14.9424 37.7247 14.893C37.51 13.4945 37.0914 12.0925 34.5935 11.6557C34.5134 11.6417 34.432 11.6347 34.3505 11.6347H24.3917C22.518 11.6347 21.527 12.395 20.7325 13.2193C20.5025 13.4596 19.8915 14.0977 20.2028 14.8777C20.5178 15.667 21.4564 15.8246 21.7645 15.8762C22.8498 16.0588 23.411 16.6023 23.5847 17.6414C23.9282 19.6604 23.9702 21.8203 23.7174 24.4352C23.6469 25.1373 23.5157 25.6709 23.3041 26.1147C23.2455 26.2376 23.1941 26.3137 23.1581 26.3585C23.1008 26.338 23.0116 26.2987 22.888 26.2238C22.1254 25.7614 21.5506 25.0425 20.9948 24.3476C18.7748 21.5701 16.9074 18.5026 15.2853 14.9682C14.6173 13.5199 13.3615 12.711 11.7515 12.69C8.68419 12.6448 5.84733 12.6459 3.08172 12.6935C1.7773 12.7136 0.862564 13.0774 0.3625 13.7752C-0.13818 14.4742 -0.119846 15.3654 0.417133 16.4246C4.25572 23.9883 7.74116 29.4906 11.718 34.2656C14.5182 37.6274 17.337 39.9609 20.5888 41.6095C24.0053 43.3416 27.8584 44.1904 32.3285 44.1903C32.8368 44.1903 33.354 44.1793 33.878 44.1571C36.6359 44.0458 37.7579 43.0738 37.8804 40.6937C37.949 39.4357 38.107 38.4167 38.6552 37.5313C38.8085 37.2835 38.9815 37.1173 39.1179 37.0869C39.2628 37.0549 39.5198 37.1335 39.8057 37.298C40.3283 37.5987 40.7783 38.0065 41.1483 38.3645C41.5233 38.7283 41.9023 39.1042 42.2691 39.4676C43.0496 40.2414 43.8567 41.0416 44.7022 41.8048C46.6148 43.5324 48.8195 44.3246 51.258 44.1587L60.0195 44.1623C60.0198 44.1623 60.0199 44.1623 60.02 44.1623C60.0478 44.1623 60.0756 44.1615 60.1035 44.1599C61.114 44.1002 61.9878 43.6044 62.5009 42.7993C63.1187 41.8298 63.1094 40.6017 62.4754 39.513C61.8139 38.3811 60.9557 37.4069 60.2009 36.6007ZM60.3155 41.7058C60.1946 41.8954 60.0456 41.93 59.9687 41.9383L51.209 41.9347C51.2087 41.9347 51.2085 41.9347 51.2081 41.9347C51.1735 41.9347 51.139 41.9359 51.1046 41.9385C49.3789 42.0659 47.912 41.5283 46.4936 40.2472C45.689 39.5208 44.9017 38.7404 44.1404 37.9857C43.7694 37.6179 43.3859 37.2375 43.0005 36.8637C42.5226 36.4012 41.9318 35.8697 41.1727 35.4329C40.0363 34.7792 39.0945 34.7989 38.5047 34.9306C37.9211 35.0609 37.0915 35.4327 36.4547 36.4625C35.6298 37.7948 35.4478 39.2321 35.3738 40.5899C35.3309 41.4203 35.1725 41.6396 35.1063 41.6954C35.0195 41.7684 34.7296 41.8969 33.7623 41.936C29.1141 42.1296 25.2133 41.392 21.8352 39.6794C18.8966 38.1896 16.3235 36.0496 13.7376 32.9452C9.87086 28.3027 6.4686 22.9264 2.70643 15.5132C2.57009 15.2446 2.52801 15.077 2.51583 14.9873C2.6118 14.9594 2.79933 14.9226 3.12811 14.9173C5.86567 14.8703 8.67287 14.869 11.7125 14.9139C12.1287 14.9194 12.6025 15.03 12.9613 15.808C14.6562 19.5009 16.614 22.7147 18.947 25.6333C19.5664 26.408 20.3374 27.3723 21.4705 28.0593C22.5084 28.6891 23.3507 28.659 23.8746 28.5229C24.3988 28.3867 25.1263 28.0084 25.6162 26.9804C25.9324 26.3178 26.1234 25.5717 26.2181 24.629C26.4884 21.8319 26.4404 19.5064 26.0673 17.313C25.8044 15.7415 24.8887 14.6062 23.4462 14.0265C23.7024 13.9083 23.991 13.859 24.3919 13.859H34.2206C34.7735 13.9689 34.8831 14.098 34.9206 14.1422C35.0798 14.3298 35.1709 14.7737 35.2265 15.1205L35.2348 24.8327C35.2127 25.7637 35.7233 27.8286 37.462 28.3948C37.4763 28.3995 37.4907 28.4039 37.5051 28.408C39.088 28.8664 40.135 27.8762 40.697 27.3443L40.7972 27.2498C43.4422 24.7622 45.2233 21.8556 46.6149 19.344C47.3401 18.047 47.9544 16.7055 48.4738 15.549C48.7336 14.9691 48.9701 14.8736 49.5344 14.8841C49.5422 14.8844 49.5498 14.8844 49.5577 14.8844L59.1437 14.8919C59.3666 14.8919 59.5993 14.8942 59.7798 14.9215C60.2366 14.9905 60.4247 15.0744 60.4867 15.1092C60.4931 15.1736 60.4917 15.359 60.3536 15.7458C59.6583 17.6855 58.3145 19.3334 56.8919 21.0782L56.722 21.2867C55.9828 22.193 55.2024 23.1049 54.4477 23.9869C53.5778 25.0032 52.6785 26.0539 51.8259 27.1144C50.0031 29.368 50.1633 30.8636 52.4381 32.8297C52.9757 33.2947 53.5267 33.7572 54.0597 34.2045C55.5709 35.4729 56.9984 36.6708 58.2723 38.0235C58.9392 38.7359 59.6952 39.5915 60.2462 40.5345C60.5336 41.0281 60.4631 41.474 60.3155 41.7058Z" fill="#848484"/>
<path d="M9.15249 18.496C8.96817 18.1729 8.78544 17.8488 8.60444 17.5241C8.29731 16.9736 7.54525 16.7474 6.92349 17.0196C6.3021 17.2916 6.04715 17.9585 6.35415 18.5091C6.5386 18.8399 6.72477 19.1701 6.91241 19.4993C7.13328 19.8865 7.57515 20.1099 8.03338 20.1099C8.22361 20.1099 8.41692 20.0714 8.59841 19.9901C9.21722 19.713 9.46516 19.0441 9.15249 18.496Z" fill="black"/>
<path d="M17.024 30.0326C14.9661 27.562 13.0409 24.8785 11.1386 21.8289C10.8033 21.2914 10.0397 21.0966 9.43317 21.3937C8.82667 21.6908 8.60667 22.3674 8.94197 22.9049C10.8979 26.0403 12.8811 28.8039 15.0046 31.3534C15.2507 31.6489 15.6306 31.8051 16.0153 31.8051C16.2742 31.8051 16.5353 31.7345 16.7595 31.5876C17.3171 31.223 17.4354 30.5268 17.024 30.0326Z" fill="#595959"/>
</g>
<defs>
<clipPath id="clip0">
<rect width="63" height="55.8254" fill="white"/>
</clipPath>
</defs>
</svg>
